<?xml version="1.0" encoding="utf-8"?>
<svg viewBox="0 0 200 200" xmlns="http://www.w3.org/2000/svg">
  <path fill="#FF0066" d="M 188.01 1.1 C 195.512 6.093 171.734 54.831 177.773 77.464 C 183.81 100.098 186.213 114.505 195.36 137.637 C 204.51 160.604 198.471 190.559 178.893 197.716 C 159.317 204.705 126.199 188.895 95.647 185.401 C 65.275 181.905 16.572 206.197 9.253 195.546 C 1.751 184.73 29.581 151.019 28.483 129.385 C 27.569 107.916 18.985 82.886 9.837 59.752 C 0.689 36.786 -3.152 3.834 11.667 0.839 C 26.303 -2.156 61.844 11.8 92.033 15.794 C 122.038 19.788 180.509 -4.059 188.01 1.1 Z" style=""/>
</svg>