<?xml version="1.0" encoding="utf-8"?>
<svg viewBox="159.394 61.83 175.646 162.079" width="175.646px" height="162.079px" xmlns="http://www.w3.org/2000/svg">
  <circle style="fill:#414458;fill-opacity:1;stroke-width:0.98435748" id="circle847" cx="254" cy="154.11996" r="81.039619" transform="matrix(1, 0, 0, 1, 0, -11.249983)"/>
  <circle r="64.156769" cy="154.11996" cx="254" id="circle845" style="fill:#4c5067;fill-opacity:1;stroke-width:0.77928787" transform="matrix(1, 0, 0, 1, 0, -11.249983)"/>
  <circle style="fill:#575b75;fill-opacity:1;stroke-width:0.67302412" id="circle843" cx="254" cy="154.11996" r="55.408344" transform="matrix(1, 0, 0, 1, 0, -11.249983)"/>
  <circle r="50.131504" cy="154.11996" cx="254" id="circle841" style="fill:#626784;fill-opacity:1;stroke-width:0.60892832" transform="matrix(1, 0, 0, 1, 0, -11.249983)"/>
  <circle style="fill:#8a8ea8;fill-opacity:1;stroke-width:0.57848275" id="path839" cx="254" cy="154.11996" r="47.625" transform="matrix(1, 0, 0, 1, 0, -11.249983)"/>
  <circle style="fill:#7c809c;fill-opacity:1;stroke-width:0.27608696" id="path4742" cx="265.33926" cy="121.14657" r="6.8035712" transform="matrix(1, 0, 0, 1, 0, -11.249983)"/>
  <circle style="fill:#7c809c;fill-opacity:1;stroke-width:0.31461361" id="path4736" cx="278.89917" cy="160.69232" r="15.449776" transform="matrix(1, 0, 0, 1, 0, -11.249983)"/>
  <circle style="fill:#7c809c;fill-opacity:1;stroke-width:0.29416406" id="path4738" cx="227.02196" cy="167.30688" r="8.4572172" transform="matrix(1, 0, 0, 1, 0, -11.249983)"/>
  <circle style="fill:#7c809c;fill-opacity:1;stroke-width:0.26458332" id="path4740" cx="268.07962" cy="189.93822" r="3.4017856" transform="matrix(1, 0, 0, 1, 0, -11.249983)"/>
  <g id="g1886" transform="matrix(0.310901, 0.285832, -0.285832, 0.310901, 189.00238, 17.692377)">
    <g id="g1880" transform="matrix(0.14379617,-0.05868559,0.05868559,0.14379617,245.24161,177.43727)" style="fill:#282a36;fill-opacity:1">
      <g transform="matrix(1.3333333,0,0,-1.3333333,0,666.66667)" id="g1874" style="fill:#282a36;fill-opacity:1"/>
      <g transform="matrix(-4.7025891,-2.9339897,2.9339897,-4.7025891,498.22943,447.9524)" id="g1878" style="display:inline;fill:#282a36;fill-opacity:1">
        <path id="path1876" style="fill:#282a36;fill-opacity:1;fill-rule:evenodd;stroke:none" d="m 0,0 c 0,0 -0.152,1.419 -0.961,3.259 -0.809,1.84 -2.001,5.425 0.095,7.392 0,0 -2.752,0.525 -2.569,2.745 0.185,2.218 0.512,7.213 -5.698,8.538 0,0 -0.259,10.218 -9.19,10.459 0,0 8.063,12.75 20.495,8.331 0,0 -7.698,-10.248 3.747,-21.181 0,0 0.667,-0.957 1.569,0.453 0.9,1.408 1.739,3.098 2.341,3.11 0,0 -0.698,1.944 1.295,3.405 0,0 1.247,-1.084 0.707,-3.342 l 1.817,-1.818 2.414,-0.886 c 1.823,1.437 3.33,0.761 3.33,0.761 -0.49,-2.421 -2.547,-2.605 -2.547,-2.605 0.242,-0.551 -0.94,-2.022 -1.84,-3.431 -0.901,-1.408 0.247,-1.613 0.247,-1.613 C 29.979,7.78 36.049,19.069 36.049,19.069 45.28,9.64 37.092,-3.03 37.092,-3.03 33.126,4.975 23.741,0.919 23.741,0.919 19.933,5.999 15.537,3.605 13.599,2.506 11.662,1.408 10.031,3.686 10.031,3.686 9.125,0.958 5.371,0.535 3.361,0.496 1.352,0.457 0,0 0,0"/>
      </g>
    </g>
    <circle style="fill:#bd93f9;fill-opacity:1;stroke-width:0.26458332" id="circle1882" cx="334.11456" cy="195.5712" r="0.93544334"/>
    <circle r="0.93544334" cy="194.17741" cx="337.51636" id="circle1884" style="fill:#bd93f9;fill-opacity:1;stroke-width:0.26458332"/>
  </g>
  <g transform="matrix(0.343822, 0.014383, -0.014383, 0.343822, 169.588989, 127.705721)" id="g1900">
    <g style="fill:#282a36;fill-opacity:1" transform="matrix(0.14379617,-0.05868559,0.05868559,0.14379617,245.24161,177.43727)" id="g1894">
      <g style="fill:#282a36;fill-opacity:1" id="g1888" transform="matrix(1.3333333,0,0,-1.3333333,0,666.66667)"/>
      <g style="display:inline;fill:#282a36;fill-opacity:1" id="g1892" transform="matrix(-4.7025891,-2.9339897,2.9339897,-4.7025891,498.22943,447.9524)">
        <path d="m 0,0 c 0,0 -0.152,1.419 -0.961,3.259 -0.809,1.84 -2.001,5.425 0.095,7.392 0,0 -2.752,0.525 -2.569,2.745 0.185,2.218 0.512,7.213 -5.698,8.538 0,0 -0.259,10.218 -9.19,10.459 0,0 8.063,12.75 20.495,8.331 0,0 -7.698,-10.248 3.747,-21.181 0,0 0.667,-0.957 1.569,0.453 0.9,1.408 1.739,3.098 2.341,3.11 0,0 -0.698,1.944 1.295,3.405 0,0 1.247,-1.084 0.707,-3.342 l 1.817,-1.818 2.414,-0.886 c 1.823,1.437 3.33,0.761 3.33,0.761 -0.49,-2.421 -2.547,-2.605 -2.547,-2.605 0.242,-0.551 -0.94,-2.022 -1.84,-3.431 -0.901,-1.408 0.247,-1.613 0.247,-1.613 C 29.979,7.78 36.049,19.069 36.049,19.069 45.28,9.64 37.092,-3.03 37.092,-3.03 33.126,4.975 23.741,0.919 23.741,0.919 19.933,5.999 15.537,3.605 13.599,2.506 11.662,1.408 10.031,3.686 10.031,3.686 9.125,0.958 5.371,0.535 3.361,0.496 1.352,0.457 0,0 0,0" style="fill:#282a36;fill-opacity:1;fill-rule:evenodd;stroke:none" id="path1890"/>
      </g>
    </g>
    <circle r="0.93544334" cy="195.5712" cx="334.11456" id="circle1896" style="fill:#bd93f9;fill-opacity:1;stroke-width:0.26458332"/>
    <circle style="fill:#bd93f9;fill-opacity:1;stroke-width:0.26458332" id="circle1898" cx="337.51636" cy="194.17741" r="0.93544334"/>
  </g>
  <g id="g1914" transform="matrix(0.471748, 0.52041, -0.52041, 0.471748, 141.528717, -134.260885)">
    <g id="g1908" transform="matrix(0.14379617,-0.05868559,0.05868559,0.14379617,245.24161,177.43727)" style="fill:#282a36;fill-opacity:1">
      <g transform="matrix(1.3333333,0,0,-1.3333333,0,666.66667)" id="g1902" style="fill:#282a36;fill-opacity:1"/>
      <g transform="matrix(-4.7025891,-2.9339897,2.9339897,-4.7025891,498.22943,447.9524)" id="g1906" style="display:inline;fill:#282a36;fill-opacity:1">
        <path id="path1904" style="fill:#282a36;fill-opacity:1;fill-rule:evenodd;stroke:none" d="m 0,0 c 0,0 -0.152,1.419 -0.961,3.259 -0.809,1.84 -2.001,5.425 0.095,7.392 0,0 -2.752,0.525 -2.569,2.745 0.185,2.218 0.512,7.213 -5.698,8.538 0,0 -0.259,10.218 -9.19,10.459 0,0 8.063,12.75 20.495,8.331 0,0 -7.698,-10.248 3.747,-21.181 0,0 0.667,-0.957 1.569,0.453 0.9,1.408 1.739,3.098 2.341,3.11 0,0 -0.698,1.944 1.295,3.405 0,0 1.247,-1.084 0.707,-3.342 l 1.817,-1.818 2.414,-0.886 c 1.823,1.437 3.33,0.761 3.33,0.761 -0.49,-2.421 -2.547,-2.605 -2.547,-2.605 0.242,-0.551 -0.94,-2.022 -1.84,-3.431 -0.901,-1.408 0.247,-1.613 0.247,-1.613 C 29.979,7.78 36.049,19.069 36.049,19.069 45.28,9.64 37.092,-3.03 37.092,-3.03 33.126,4.975 23.741,0.919 23.741,0.919 19.933,5.999 15.537,3.605 13.599,2.506 11.662,1.408 10.031,3.686 10.031,3.686 9.125,0.958 5.371,0.535 3.361,0.496 1.352,0.457 0,0 0,0"/>
      </g>
    </g>
    <circle style="fill:#bd93f9;fill-opacity:1;stroke-width:0.26458332" id="circle1910" cx="334.11456" cy="195.5712" r="0.93544334"/>
    <circle r="0.93544334" cy="194.17741" cx="337.51636" id="circle1912" style="fill:#bd93f9;fill-opacity:1;stroke-width:0.26458332"/>
  </g>
</svg>